<svg width="114" height="24" viewBox="0 0 114 24" fill="none" xmlns="http://www.w3.org/2000/svg">
<path fill-rule="evenodd" clip-rule="evenodd" d="M8.88369 9.5355C8.89822 13.7625 10.0006 19.0251 12.1928 22.7586H17.9849C17.3573 18.6801 17.7626 14.4651 19.2037 10.5651C19.3345 13.9971 20.2439 18.4422 21.9291 21.5172H29.1128C25.5028 16.2357 23.8961 9.49335 24.2941 3.31034H17.1786C15.6646 5.6573 14.5632 8.15634 13.787 10.7496C13.1391 7.09723 13.0357 3.38203 13.6994 0H6.58987C1.55904 7.044 -0.355526 15.717 0.848794 24H7.89876C6.9937 19.197 7.322 14.1945 8.88369 9.5355ZM55.6169 21.6807C55.2898 18.4171 55.2898 16.4589 55.9879 12.7384C56.3773 16.9966 56.7667 18.6999 58.4067 21.6807H58.4488H63.0039H63.9185C63.5915 18.4171 63.5915 16.4589 64.2896 12.7384C64.3467 13.3631 64.3933 13.9328 64.4364 14.4596L64.4364 14.46C64.6869 17.524 64.8188 19.1373 66.2181 21.6807H71.3056C68.3231 17.1069 68.1819 11.6646 68.0289 5.7634V5.763C68.0088 4.9845 67.9884 4.198 67.9612 3.40446H63.3591C61.8227 5.67521 60.7089 8.18199 59.9336 10.8667C59.8167 9.21282 59.7725 7.5082 59.7273 5.76347V5.76337L59.7272 5.76297L59.7272 5.7626L59.7272 5.76225L59.7272 5.76191L59.7272 5.76159C59.707 4.98355 59.6867 4.19752 59.6595 3.40446H55.0574C51.5963 8.51995 50.2796 14.8333 50.1471 21.6807H55.6169ZM78.4071 21.6807C78.08 18.4171 78.08 16.4589 78.7781 12.7384C79.1675 16.9966 79.5569 18.6999 81.197 21.6807H81.239H85.7941H86.7087C86.3817 18.4171 86.3817 16.4589 87.0798 12.7384C87.1367 13.3611 87.1832 13.9291 87.2261 14.4544L87.2265 14.4586L87.2266 14.46C87.4771 17.524 87.6089 19.1373 89.0083 21.6807H94.0958C91.1132 17.1069 90.9721 11.6646 90.8191 5.7634V5.763C90.7989 4.9845 90.7785 4.198 90.7514 3.40446H86.1493C84.6129 5.67519 83.4991 8.18196 82.7238 10.8667C82.6069 9.21276 82.5627 7.50813 82.5175 5.7634V5.763C82.4973 4.9845 82.4769 4.198 82.4497 3.40446H77.8476C74.3865 8.51995 73.0698 14.8333 72.9373 21.6807H78.4071ZM42.3621 3.37606C42.2819 3.84003 42.2089 4.30401 42.1415 4.76952C40.6186 3.45622 38.7088 2.71016 36.6329 2.71016C31.5885 2.71016 27.6071 7.0524 27.6071 12.5014C27.6071 17.9504 31.5885 22.2926 36.6329 22.2926C38.7088 22.2926 40.6186 21.5466 42.1415 20.2333C42.2089 20.6988 42.2819 21.1627 42.3621 21.6267H48.0985C47.0627 15.5981 47.0627 9.40464 48.0985 3.37606H42.3621ZM37.461 16.5461C35.2031 16.5461 33.6444 14.7349 33.6444 12.5014C33.6444 10.2678 35.2031 8.45665 37.461 8.45665C39.7189 8.45665 41.2776 10.2678 41.2776 12.5014C41.2776 14.7349 39.7189 16.5461 37.461 16.5461ZM107.543 4.76952C107.61 4.30401 107.683 3.84003 107.764 3.37606H113.5C112.464 9.40464 112.464 15.5981 113.5 21.6267H107.764C107.683 21.1627 107.61 20.6988 107.543 20.2333C106.02 21.5466 104.11 22.2926 102.034 22.2926C96.99 22.2926 93.0086 17.9504 93.0086 12.5014C93.0086 7.0524 96.99 2.71016 102.034 2.71016C104.11 2.71016 106.02 3.45622 107.543 4.76952ZM99.0458 12.5014C99.0458 14.7349 100.605 16.5461 102.862 16.5461C105.12 16.5461 106.679 14.7349 106.679 12.5014C106.679 10.2678 105.12 8.45665 102.862 8.45665C100.605 8.45665 99.0458 10.2678 99.0458 12.5014Z" fill="#204FF5"/>
</svg>
